/* XPM */
static char * collect2_xpm[] = {
"32 32 5 1",
" 	c #733E39",
".	c #B86F50",
"+	c #FDF7ED",
"@	c #2A2A3A",
"#	c #DA4E38",
"   .       .       .       .    ",
" .....................   .......",
"....................... ........",
"....................... ........",
"....................... ........",
" ..................... . .......",
".  .....  ...  .....  ......   .",
"................................",
"................................",
"................................",
"...........+++...+++............",
"..........+@@@+.+@@@+...........",
".........+@###@+@###@+..........",
".........+@####@####@+..........",
".........+@#########@+..........",
".........+@#########@+..........",
"..........+@#######@+...........",
"...........+@#####@+............",
"............+@###@+.............",
".............+@#@+..............",
"..............+@+...............",
"...............+................",
"................................",
"................................",
"................................",
"................................",
"................................",
"................................",
"................................",
"................................",
"................................",
"................................"};
