/* XPM */
static char * ennemy_xpm[] = {
"32 32 6 1",
" 	c #733E39",
".	c #B86F50",
"+	c #222222",
"@	c #9F294E",
"#	c #DA4E38",
"$	c #FDF7ED",
"   .       .     + .       .    ",
" .......+++...+.+....+   .......",
".........++++++++++++.+ ........",
".....++++++@@+##@@##@+++........",
".......++@+#@+##$$##$+@++.......",
" .......+@###+##$$##$+#++.......",
".  ....+++@@#+##++##++#++...   .",
".......++@@##@+++++++@#+........",
".....+++++@++#+@+@+@+#++........",
"........++++++$+$+$+$+$++.......",
".........+++++++$+++$+++........",
".........++++++++++++++.........",
".........+.++++++++++++.........",
".........+.+.++++++++++.........",
".........+.+.++++++++.+.........",
"...........+..+++++.+...........",
".........+.+...+++..............",
"...........+....+.....+.........",
".........+.+...+++..+.+.........",
".....+...+.+.++++++++.+.........",
".....+++.++++++++++++++.........",
"......++++++++++++++++++........",
".......++++++++$+++++$++++......",
"....++.++++++$+$+$+$+$+$++......",
".....+++++@+@+#+#+#+#+@++.......",
"......++@+#############@+.......",
".......+@@@@############+.......",
".......++@@####@########++......",
"....++++@@@@@@@@@@##@@##++......",
".....+++@@@@@@@@@@@@@@@@+.......",
"......+@@@@+++++++++@@@+........",
"......+++++.........+@@+........"};
