/* XPM */
static char * enemy_2_xpm[] = {
"32 32 9 1",
" 	c #733E39",
".	c #B86F50",
"+	c #222222",
"@	c #4BA747",
"#	c #97DA3F",
"$	c #775C55",
"%	c #AA8D7A",
"&	c #333333",
"*	c #483B3A",
"   .       .       .       .    ",
" .....................   .......",
"....................... ........",
"....................... ........",
"....................... ........",
" ..................... . .......",
".  .....  ...  +++++  ......   .",
"..............+@@+#@+...........",
".............+@###+##+..........",
".............+@@@#@##+..........",
"..............+@@@@@+...........",
"...............+++++............",
"................................",
"............++++++++++++........",
"............+$%$$$$$$$$+........",
"...........++$%%+++%%+++........",
"..........+$+$%%+++%%++++.......",
".........+$$+$%%$$$%%$$$+.......",
"........+$$%+$%%%%%%%%%%+.......",
"........+$%%+$$&%&%&%&%&+.......",
".......+$%%%++$$%%%%%%%%+.......",
".......+$$%%$+$$$$$$$$$+........",
".......+$$%%$++++++++++++.......",
".......+$%%%%%%%%%&%%%%%+.......",
".......+$$$%%%%%%%%%%%%%+.......",
".......++++++++++++++++++.......",
".......+&&&&&&&&&&&&&&&&+.......",
".......++++++++++++++++++.......",
".......+&&&*&***********+.......",
".......+&&**************+.......",
".......+&&&&*&**********+.......",
".......+&&&*************+......."};
