/* XPM */
static char * exit6_xpm[] = {
"32 32 20 1",
" 	c #733E39",
".	c #B86F50",
"+	c #3E2731",
"@	c #181425",
"#	c #FFFFFF",
"$	c #262B44",
"%	c #3A4466",
"&	c #5A6988",
"*	c #222222",
"=	c #EE8E2E",
"-	c #FACB3E",
";	c #DA4E38",
">	c #FCCBA3",
",	c #5698CC",
"'	c #C0CBDC",
")	c #3D734F",
"!	c #8B9BB4",
"~	c #4BA747",
"{	c #D4D4D4",
"]	c #D4D5D6",
" ...                        ... ",
" ............   ...  .......... ",
" .............  .... ....  .... ",
" .... ........     . ...   .... ",
" ....   ..........   .......... ",
"+++++++++++++++++++ @+++++++++++",
"++++++++@+++++######@+++++++++++",
"@@$%%$%%%%%##########$$%%%$%%$$@",
"@@@$$$%&&&###########$$%%%%$$$$@",
"@@@$$$%&#############$$$%$$$$$$@",
"@@$$$$$##############%$$$@@$$$$@",
"@$$%%$$$##############$$@@@%%$$@",
"@$%&&%$$###############$$@@&&%$@",
"@%&&&%$$################$$$&&&%@",
"@%&&&%$#################$$$&&&%@",
"@$%&&%%######*******#####$$&&%$@",
"@$$%%$######*=====--*#####$%%$$@",
"@$$$$$#####*=--------*####$$$$$@",
"@@@@@#####*==-------=-*###@@@@@@",
"@@@@@####*;;;=>>>>>>=-*###@@@@$@",
"@@@@$####*;;;>,,>>>,*#*###$$@$$@",
"@@$@#####*;;;>,,>>>,*######$$$$@",
"@@$''''###*=->>>>>>>*#####''@$$@",
"@@''''''''*=-->>>>>>*''''''''$@@",
"@@'''''''*==---))>))=*'''''''$@@",
"@@!!!'''*==--~-~~~~~==*''''!!$@@",
"@@!!!!!!*****~~~~~~~***!!!!!!$@@",
"@${{]]]!!!**~~~~~~~**!!!!!!!{@$@",
"@$]{{{{{*))))))))))))*{{]]]{{$$@",
"@@{{{{{{**************{{{{{{{@@@",
"@@{{{{{{{{{{{{{{{{{{{{{{{{{{{@@@",
"@@{{{{{{{{{{{{{{{{{{{{{{{{{{{@@@"};
