/* XPM */
static char * hero_exit_xpm[] = {
"32 32 18 1",
" 	c #733E39",
".	c #B86F50",
"+	c #3E2731",
"@	c #181425",
"#	c #FFFFFF",
"$	c #262B44",
"%	c #3A4466",
"&	c #5A6988",
"*	c #222222",
"=	c #DC4A7B",
"-	c #F78697",
";	c #72D6CE",
">	c #FDF7ED",
",	c #417089",
"'	c #C0CBDC",
")	c #8B9BB4",
"!	c #D4D4D4",
"~	c #D4D5D6",
" ...                        ... ",
" ............   ...  .......... ",
" .............  .... ....  .... ",
" .... ........     . ...   .... ",
" ....   ..........   .......... ",
"+++++++++++++++++++ @+++++++++++",
"++++++++@+++++######@+++++++++++",
"@@$%%$%%%%%##########$$%%%$%%$$@",
"@@@$$$%&&&###########$$%%%%$$$$@",
"@@@$$$%&#############$$$%$$$$$$@",
"@@$$$$$##*******#####%$$$@@$$$$@",
"@$$%%$$$*===----*#####$$@@@%%$$@",
"@$%&&%$$#***==---*#####$$@@&&%$@",
"@%&&&%$$####*==--*######$$$&&&%@",
"@%&&&%$######*==*#######$$$&&&%@",
"@$%&&%%####**********####$$&&%$@",
"@$$%%$#####*;;;;;;>>*#####$%%$$@",
"@$$$$$#####*;;,,,,,,***###$$$$$@",
"@@@@@######*;;,;;;;;>>*###@@@@@@",
"@@@@@######*;;,;,;,;,>*###@@@@$@",
"@@@@$######*;;,;,;,;,>*###$$@$$@",
"@@$@#######*;;,;,;,;,>*####$$$$@",
"@@$''''####*;;,;;;;;>>*###''@$$@",
"@@'''''''''*;;,,,,,,***''''''$@@",
"@@'''''''''*;;;;;;;>*''''''''$@@",
"@@)))''''''*,,,,,,,;*''''''))$@@",
"@@)))))))))*;;;;;;;>*))))))))$@@",
"@$!!~~~))))*;;;;;;;>*)))))))!@$@",
"@$~!!!!!!!~*,,****,,*!!!~~~!!$$@",
"@@!!!!!!!!!***!!!***!!!!!!!!!@@@",
"@@!!!!!!!!!!!!!!!!!!!!!!!!!!!@@@",
"@@!!!!!!!!!!!!!!!!!!!!!!!!!!!@@@"};
