/* XPM */
static char * hero2_xpm[] = {
"32 32 8 1",
" 	c #733E39",
".	c #B86F50",
"+	c #222222",
"@	c #DC4A7B",
"#	c #F78697",
"$	c #72D6CE",
"%	c #FDF7ED",
"&	c #417089",
"   .       .       .       .    ",
" .....................   .......",
"....................... ........",
"....................... ........",
"....................... ........",
" ..................... . .......",
".  .....  ...  .....  ......   .",
"................................",
"...........++++++...............",
"..........+@@####+..............",
".........+@++@@###+.............",
"..........+..+@@##+.............",
"............+++@@+++++..........",
"............+$$$$$$%%+..........",
"............+$$&&&&&&+++........",
"............+$$&$$$$$%%+........",
"............+$$&$&$&$&%+........",
"............+$$&$&$&$&%+........",
"............+$$&$&$&$&%+........",
"............+$$&$$$$$%%+........",
"............+$$&&&&&&+++........",
"............+$$$$$$$%+..........",
"............+&&&&&&&$+..........",
"............+$$$$$$$%+..........",
"............+$$$$$$$%+..........",
"............+&&++++&&+..........",
"............+&+...+&+...........",
"............++....++............",
"................................",
"................................",
"................................",
"................................"};
