/* XPM */
static char * wall2_xpm[] = {
"32 32 7 1",
" 	c #733E39",
".	c #B86F50",
"+	c #3E2731",
"@	c #181425",
"#	c #262B44",
"$	c #3A4466",
"%	c #5A6988",
" ...                        ... ",
" ............   ...  .......... ",
" .............  .... ....  .... ",
" .... ........     . ...   .... ",
" ....   ..........   .......... ",
"+++++++++++++++++++ @+++++++++++",
"++++++++@+++++++++++@+++++++++++",
"@@#$$#$$$$$$###@@@@@@##$$$#$$##@",
"@@@###$%%%$%$##@@@#####$$$$####@",
"@@@###$%%%%$############$######@",
"@@#####$$$$$#####$$$$$###@@####@",
"@##$$########@@###$%%$##@@@$$##@",
"@#$%%$#######@@@@##$$%$##@@%%$#@",
"@$%%%$##########@@##$%%$###%%%$@",
"@$%%%$##$%%%$$######$%%$###%%%$@",
"@#$%%$$$%%%%%%%$$####%$$###%%$#@",
"@##$$#$$%%%%%%%%%###$$$####$$##@",
"@#####$$%%%%%%%%%###$###@@#####@",
"@@@@@###$$%%%%%%$######@@@@@@@@@",
"@@@@@######$%%$$###@#####@@@@@#@",
"@@@@##@#####$$####@###$$$###@##@",
"@@#@@@#@####$###@@@##$$%%$$####@",
"@@#$$$@#@##########@##$%%%%#@##@",
"@@#$$%$@@###@@#$$$$###$$%%%#@#@@",
"@@#$$%$@##$##@#$%%%$###$%%%###@@",
"@@#$$$$@##$$###$%%%$###$%%%###@@",
"@@##$$$@##$$###$$$%$####$%%$##@@",
"@#@@###@@#$$$#####$$##@#$$$#@@#@",
"@##@@@@@@@###@@@@@###@@@###@@##@",
"@@@@@@@@@@@@@@@@@@@@@@@@@@@@@@@@",
"@@@@@@@@@@@@@@@@@@@@@@@@@@@@@@@@",
"@@@@@@@@@@@@@@@@@@@@@@@@@@@@@@@@"};
